<svg width="45" height="39" viewBox="0 0 45 39" fill="none" xmlns="http://www.w3.org/2000/svg">
<g id="logo">
<path id="path834" opacity="0.87541" fill-rule="evenodd" clip-rule="evenodd" d="M34.8807 32.7281C35.5861 31.0211 35.9312 29.3044 35.9312 27.5034C35.9312 26.9484 35.9153 26.8069 35.853 26.8069C35.8099 26.8069 35.6044 26.8704 35.3962 26.9481C34.7783 27.1788 33.5779 27.4733 32.7295 27.6024C31.7796 27.7469 29.9373 27.7745 29.0745 27.6571C25.9761 27.2355 23.2354 25.9468 21.0784 23.897C18.7565 21.6905 17.3208 18.9074 16.8539 15.7079C16.7336 14.8833 16.7193 12.9817 16.8275 12.1955C17.5723 6.78319 21.1918 2.39714 26.3056 0.710003C31.6841 -1.06449 37.6301 0.556273 41.3094 4.79975C43.0536 6.81153 44.132 9.14643 44.5824 11.8864C44.7104 12.6649 44.7266 14.8782 44.6101 15.6517C44.2342 18.1458 43.3721 20.2415 41.9247 22.1794L41.5777 22.6441L41.5919 23.2534C41.684 27.2137 39.2923 30.9272 35.6196 32.5262C34.9028 32.8382 34.8266 32.8591 34.8807 32.7281V32.7281ZM31.6862 21.4729C33.4029 21.0908 35.0703 20.1779 36.8998 18.6185C37.7073 17.9302 38.1333 17.5011 38.1758 17.3332C38.1954 17.2554 38.2004 17.1809 38.1868 17.1674C38.1733 17.1539 37.8578 17.3422 37.4859 17.5857C33.8747 19.9498 30.5888 20.5222 27.1761 19.3817C26.0153 18.9938 24.5493 18.2409 23.3992 17.4421C23.1607 17.2764 22.9503 17.1409 22.9316 17.1409C22.913 17.1409 22.8978 17.2065 22.8978 17.2867C22.8978 17.3953 23.0645 17.6087 23.5517 18.1232C25.5331 20.2159 27.3543 21.2981 29.3703 21.5806C29.9005 21.6549 31.1241 21.598 31.6862 21.4729V21.4729ZM26.7511 10.5181C26.7511 9.68932 26.5209 9.06656 26.0329 8.57568C25.6607 8.20136 25.3381 8.06501 24.8245 8.06501C24.3124 8.06501 24.0172 8.18936 23.6296 8.56833C23.1314 9.05545 22.8978 9.679 22.8978 10.5214C22.8978 11.0281 22.9695 11.1801 23.0314 10.8046C23.1327 10.1901 23.7381 9.38794 24.2726 9.15988C24.6125 9.01488 25.128 9.02496 25.4354 9.18261C25.9343 9.43847 26.3991 10.0558 26.5604 10.6771C26.6157 10.8899 26.6812 11.0516 26.706 11.0364C26.7308 11.0212 26.7511 10.7879 26.7511 10.5181ZM37.9712 10.2933C37.9712 10.0234 37.9322 9.65381 37.8844 9.47191C37.4814 7.93753 35.9833 7.32543 34.9417 8.26955C34.3708 8.78695 34.1179 9.40968 34.1179 10.2976C34.1179 10.8035 34.1896 10.955 34.2515 10.5798C34.3528 9.96528 34.9582 9.16315 35.4927 8.93509C35.8804 8.76972 36.3801 8.80074 36.745 9.01283C37.2335 9.29671 37.6612 9.91785 37.8108 10.5608C37.8468 10.7155 37.8977 10.8291 37.9238 10.813C37.9499 10.797 37.9712 10.5632 37.9712 10.2933V10.2933Z" fill="#147EFB"/>
<path id="path836" opacity="0.87541" fill-rule="evenodd" clip-rule="evenodd" d="M14.354 38.8071C12.5025 38.0551 10.8307 36.6567 9.73181 34.9407C9.17199 34.0665 8.63457 32.7541 8.40743 31.7065L8.306 31.2387L7.73561 31.0257C4.05525 29.6513 1.26068 26.5121 0.324244 22.7005C0.00247837 21.3908 -0.0883581 19.7024 0.0902528 18.3512C0.598589 14.5055 3.02292 11.1058 6.52098 9.3331C8.20973 8.47731 9.68683 8.10476 11.5972 8.05281C13.4855 8.00145 14.9856 8.26949 16.6157 8.94948L17.1619 9.17736L17.0801 9.37157C17.0351 9.47838 16.9097 9.88575 16.8015 10.2768C15.2385 15.9231 17.2901 21.8084 22.0298 25.2753L22.4935 25.6145L22.2469 26.0322C21.5684 27.1818 20.2844 28.5906 19.1645 29.4144C17.6351 30.5394 16.1935 31.1697 14.136 31.613C14.0278 31.6363 14.0089 31.7014 13.945 32.2719C13.8576 33.0517 13.8562 34.642 13.9422 35.3214C14.0797 36.4072 14.3983 37.6803 14.7357 38.4916C14.9154 38.9237 14.9358 39.0039 14.8652 38.9999C14.8419 38.9985 14.6118 38.9118 14.354 38.8071H14.354ZM4.52735 26.0384C5.77574 25.2171 7.0811 24.6587 8.391 24.3857C9.09816 24.2383 10.4695 24.2101 11.1905 24.328C12.591 24.5571 14.3317 25.2889 15.6727 26.2124C16.1727 26.5567 16.1544 26.5494 16.1548 26.4033C16.1552 26.2542 15.527 25.6374 14.7094 24.9841C12.797 23.456 11.1285 22.7997 9.38711 22.8907C7.6399 22.982 6.07171 23.8388 4.32513 25.6564C3.91281 26.0855 3.74429 26.3007 3.74429 26.3983C3.74429 26.474 3.76341 26.5272 3.78679 26.5167C3.81017 26.5062 4.14342 26.291 4.52735 26.0384V26.0384ZM6.10173 18.0249C6.55108 17.7925 6.86689 17.2239 6.90549 16.5778C6.94131 15.9782 6.90271 15.8669 6.78909 16.2423C6.44159 17.3905 5.40434 17.7901 4.69704 17.0483C4.53236 16.8756 4.25575 16.3295 4.25485 16.1754C4.25453 16.1231 4.22551 16.0627 4.19032 16.0412C4.07627 15.9713 4.15954 16.9625 4.29243 17.2567C4.65303 18.0551 5.41656 18.3793 6.10173 18.0249V18.0249ZM13.8594 17.8782C14.3847 17.6378 14.7238 17.0726 14.7801 16.3441C14.8232 15.7859 14.7524 15.6849 14.618 16.1131C14.156 17.5856 12.6914 17.6245 12.1599 16.1782C12.0378 15.8461 12.0257 15.8318 11.9884 15.9764C11.8811 16.3918 12.1378 17.2171 12.4883 17.5839C12.8551 17.9678 13.4056 18.086 13.8594 17.8782Z" fill="#147EFB"/>
</g>
</svg>
